Coordinates
version=1
nRows=17
nColumns=40
inDegrees=yes

Units are S.I. units (second, meters, Newtons, ...)
If the header above contains a line with 'inDegrees', this indicates whether rotational values are in degrees (yes) or radians (no).

endheader
time	pelvis_tilt	pelvis_list	pelvis_rotation	pelvis_tx	pelvis_ty	pelvis_tz	hip_flexion_r	hip_adduction_r	hip_rotation_r	knee_angle_r	knee_angle_r_beta	ankle_angle_r	subtalar_angle_r	mtp_angle_r	hip_flexion_l	hip_adduction_l	hip_rotation_l	knee_angle_l	knee_angle_l_beta	ankle_angle_l	subtalar_angle_l	mtp_angle_l	lumbar_extension	lumbar_bending	lumbar_rotation	arm_flex_r	arm_add_r	arm_rot_r	elbow_flex_r	pro_sup_r	wrist_flex_r	wrist_dev_r	arm_flex_l	arm_add_l	arm_rot_l	elbow_flex_l	pro_sup_l	wrist_flex_l	wrist_dev_l
      1.73000000	    -16.08234736	     -2.42383336	     -0.79102160	      0.14246593	      0.64663973	     -1.21139930	     73.51598899	    -38.58612136	     -8.50826997	     87.80052755	      1.53240829	     20.15657270	     -1.31498125	      0.00000000	     79.46993589	    -42.35226073	     -3.94190936	     88.95726666	      1.55259720	     21.35854500	      6.96641261	      0.00000000	    -17.47301468	      2.33736934	     -5.09864965	     44.99992305	    -14.99999999	     44.99992305	     75.00017585	     45.00000026	      0.00000000	      0.00000000	     44.99992305	    -14.99999999	     44.99992305	     75.00017585	     45.00000026	      0.00000000	      0.00000000
      1.73500000	    -16.48271895	     -2.40300378	     -0.83372326	      0.14261272	      0.65060638	     -1.21122762	     73.24093429	    -38.28521880	     -8.90511520	     86.94058090	      1.51739939	     19.98746040	     -1.44245833	      0.00000000	     79.10545425	    -42.13129974	     -4.40289569	     88.11787383	      1.53794703	     21.14715163	      6.83958601	      0.00000000	    -16.61201614	      2.30582849	     -5.10346477	     44.99992305	    -14.99999999	     44.99992305	     75.00017585	     45.00000026	      0.00000000	      0.00000000	     44.99992305	    -14.99999999	     44.99992305	     75.00017585	     45.00000026	      0.00000000	      0.00000000
      1.74000000	    -16.86377235	     -2.37877116	     -0.88624012	      0.14279608	      0.65462665	     -1.21100396	     72.96019231	    -38.00471962	     -9.33744720	     86.10199180	      1.50276325	     19.74485186	     -1.62999576	      0.00000000	     78.71256949	    -41.94117848	     -4.90166402	     87.26883697	      1.52312854	     20.89940850	      6.63627653	      0.00000000	    -15.88426995	      2.28727420	     -5.11075044	     44.99992305	    -14.99999999	     44.99992305	     75.00017585	     45.00000026	      0.00000000	      0.00000000	     44.99992305	    -14.99999999	     44.99992305	     75.00017585	     45.00000026	      0.00000000	      0.00000000
      1.74500000	    -15.96099865	     -2.17313517	     -1.11286099	      0.14370294	      0.66281476	     -1.21039461	     71.11330567	    -37.54509476	     -9.72082199	     84.86634002	      1.48119706	     18.94690882	     -2.47324795	      0.00000000	     76.14243423	    -42.10449981	     -6.36348590	     86.04690121	      1.50180174	     20.41475513	      6.16561471	      0.00000000	    -16.96875398	      2.01739932	     -4.78273804	     44.99992306	    -14.99999999	     44.99992306	     75.00017585	     45.00000026	      0.00000000	      0.00000000	     44.99992306	    -14.99999999	     44.99992306	     75.00017585	     45.00000026	      0.00000000	      0.00000000
      1.75000000	    -16.46185651	     -2.15239633	     -1.16190649	      0.14399218	      0.66639696	     -1.21011735	     70.99702326	    -37.31640657	    -10.18555139	     84.10443612	      1.46789933	     18.92454489	     -2.54788440	      0.00000000	     75.92840685	    -41.91987520	     -6.82804868	     85.22046904	      1.48737777	     20.31575977	      6.08438951	      0.00000000	    -16.22735206	      1.98449848	     -4.77983127	     44.99992306	    -14.99999999	     44.99992306	     75.00017585	     45.00000026	      0.00000000	      0.00000000	     44.99992306	    -14.99999999	     44.99992306	     75.00017585	     45.00000026	      0.00000000	      0.00000000
      1.75500000	    -16.86506502	     -2.13077067	     -1.20866514	      0.14419261	      0.67038017	     -1.20997183	     70.72684891	    -36.99461974	    -10.54876943	     83.20750144	      1.45224486	     18.73365741	     -2.67952597	      0.00000000	     75.57213424	    -41.66834125	     -7.26006014	     84.35157156	      1.47221265	     20.09078316	      5.92256478	      0.00000000	    -15.33708223	      1.95753616	     -4.78329020	     44.99992306	    -14.99999999	     44.99992306	     75.00017585	     45.00000026	      0.00000000	      0.00000000	     44.99992306	    -14.99999999	     44.99992306	     75.00017585	     45.00000026	      0.00000000	      0.00000000
      1.76000000	    -16.22634693	     -1.94039927	     -1.44334429	      0.14497704	      0.67772307	     -1.20941724	     69.24590290	    -36.52222170	    -10.84002805	     81.99583183	      1.43109724	     17.95434199	     -3.40424680	      0.00000000	     73.40910256	    -41.73180952	     -8.57615677	     83.16263462	      1.45146179	     19.59045481	      5.40824863	      0.00000000	    -16.05362744	      1.74813533	     -4.47026563	     44.99992306	    -14.99999999	     44.99992306	     75.00017585	     45.00000026	      0.00000000	      0.00000000	     44.99992306	    -14.99999999	     44.99992306	     75.00017585	     45.00000026	      0.00000000	      0.00000000
      1.76500000	    -16.47857556	     -1.88471229	     -1.53775018	      0.14525244	      0.68222133	     -1.20915849	     68.83318694	    -36.18150186	    -11.19875115	     81.05460207	      1.41466968	     17.53901355	     -3.78719642	      0.00000000	     72.78078411	    -41.52967420	     -9.16955473	     82.22525694	      1.43510146	     19.24997188	      4.98831495	      0.00000000	    -15.52764148	      1.66738559	     -4.38822092	     44.99992306	    -14.99999999	     44.99992306	     75.00017585	     45.00000026	      0.00000000	      0.00000000	     44.99992306	    -14.99999999	     44.99992306	     75.00017585	     45.00000026	      0.00000000	      0.00000000
      1.77000000	    -16.96472009	     -1.86047922	     -1.59202855	      0.14562097	      0.68581468	     -1.20889722	     68.70094915	    -35.95168909	    -11.66172721	     80.27063625	      1.40098690	     17.53713452	     -3.85800839	      0.00000000	     72.55025417	    -41.33507669	     -9.63157412	     81.37756437	      1.42030644	     19.16454190	      4.93810774	      0.00000000	    -14.78456939	      1.64526795	     -4.38886219	     44.99992306	    -14.99999999	     44.99992306	     75.00017585	     45.00000026	      0.00000000	      0.00000000	     44.99992306	    -14.99999999	     44.99992306	     75.00017585	     45.00000026	      0.00000000	      0.00000000
      1.77500000	    -17.34614308	     -1.83840478	     -1.64331930	      0.14589251	      0.68990160	     -1.20877723	     68.39139445	    -35.60888558	    -12.00325250	     79.31130359	      1.38424338	     17.32304159	     -3.98219638	      0.00000000	     72.16019620	    -41.06327837	    -10.05342916	     80.46418760	      1.40436500	     18.92157840	      4.79264004	      0.00000000	    -13.88576092	      1.62250355	     -4.39134094	     44.99992306	    -14.99999999	     44.99992306	     75.00017585	     45.00000026	      0.00000000	      0.00000000	     44.99992306	    -14.99999999	     44.99992306	     75.00017585	     45.00000026	      0.00000000	      0.00000000
      1.78000000	    -16.45029243	     -1.69917525	     -1.89514179	      0.14705275	      0.69802716	     -1.20824752	     66.49996526	    -35.11293399	    -12.38637787	     77.95793879	      1.36062271	     16.53104989	     -4.59000063	      0.00000000	     69.62725862	    -41.15329275	    -11.46879306	     79.14770496	      1.38138805	     18.40088605	      4.47496813	      0.00000000	    -14.98297781	      1.43560966	     -4.07591479	     44.99992307	    -14.99999999	     44.99992307	     75.00017585	     45.00000026	      0.00000000	      0.00000000	     44.99992307	    -14.99999999	     44.99992307	     75.00017585	     45.00000026	      0.00000000	      0.00000000
      1.78500000	    -16.95617425	     -1.67624533	     -1.95149802	      0.14748651	      0.70153085	     -1.20799032	     66.39439476	    -34.88776823	    -12.85430336	     77.16631589	      1.34680628	     16.50880588	     -4.66460666	      0.00000000	     69.43105643	    -40.95572129	    -11.92583637	     78.29249740	      1.36646186	     18.29953802	      4.39223830	      0.00000000	    -14.22556197	      1.40663725	     -4.07050386	     44.99992307	    -14.99999999	     44.99992307	     75.00017585	     45.00000026	      0.00000000	      0.00000000	     44.99992307	    -14.99999999	     44.99992307	     75.00017585	     45.00000026	      0.00000000	      0.00000000
      1.79000000	    -17.34277023	     -1.65423921	     -2.00879657	      0.14779329	      0.70559360	     -1.20789087	     66.09090701	    -34.52404493	    -13.16492687	     76.16527351	      1.32933480	     16.25092145	     -4.78935142	      0.00000000	     69.05168723	    -40.66226683	    -12.32437572	     77.34793643	      1.34997616	     18.02075619	      4.21534862	      0.00000000	    -13.28744147	      1.38545807	     -4.07133350	     44.99992307	    -14.99999999	     44.99992307	     75.00017585	     45.00000026	      0.00000000	      0.00000000	     44.99992307	    -14.99999999	     44.99992307	     75.00017585	     45.00000026	      0.00000000	      0.00000000
      1.79500000	    -16.42944034	     -1.51343636	     -2.30170167	      0.14902924	      0.71370380	     -1.20726563	     64.20699038	    -33.99998588	    -13.50099902	     74.77092929	      1.30499890	     15.40266914	     -5.27134907	      0.00000000	     66.46608150	    -40.73904549	    -13.77816855	     75.96802201	      1.32589211	     17.44967661	      3.90722418	      0.00000000	    -14.40558694	      1.18131493	     -3.71503626	     44.99992308	    -14.99999999	     44.99992308	     75.00017585	     45.00000026	      0.00000000	      0.00000000	     44.99992308	    -14.99999999	     44.99992308	     75.00017585	     45.00000026	      0.00000000	      0.00000000
      1.80000000	    -16.61508554	     -1.44843345	     -2.39647852	      0.14942304	      0.71835679	     -1.20708393	     63.70645042	    -33.61692473	    -13.77367100	     73.71337198	      1.28654104	     14.98810384	     -5.78356653	      0.00000000	     65.74264214	    -40.46988732	    -14.38177917	     74.94721373	      1.30807564	     17.11043838	      3.48220536	      0.00000000	    -13.98642983	      1.13401362	     -3.63449521	     44.99992308	    -14.99999999	     44.99992308	     75.00017585	     45.00000026	      0.00000000	      0.00000000	     44.99992308	    -14.99999999	     44.99992308	     75.00017585	     45.00000026	      0.00000000	      0.00000000
      1.80500000	    -16.57519800	     -1.39358078	     -2.52660186	      0.15015375	      0.72361858	     -1.20678449	     62.89572791	    -33.23380945	    -14.13544117	     72.60733972	      1.26723714	     14.60989575	     -6.09880473	      0.00000000	     64.65418353	    -40.29816417	    -15.14203382	     73.85076551	      1.28893901	     16.79086257	      3.25848664	      0.00000000	    -13.84557803	      1.05711019	     -3.51937682	     44.99992308	    -14.99999999	     44.99992308	     75.00017585	     45.00000026	      0.00000000	      0.00000000	     44.99992308	    -14.99999999	     44.99992308	     75.00017585	     45.00000026	      0.00000000	      0.00000000
      1.81000000	    -16.73239169	     -1.36514950	     -2.62920235	      0.15074092	      0.72830482	     -1.20657029	     62.31676500	    -32.86224553	    -14.48875823	     71.53284434	      1.24848366	     14.10540193	     -6.25921546	      0.00000000	     63.91479015	    -40.09353073	    -15.76065989	     72.81253657	      1.27081850	     16.37437984	      3.02860901	      0.00000000	    -13.42477440	      1.00074820	     -3.45482577	     44.99992308	    -14.99999999	     44.99992308	     75.00017585	     45.00000026	      0.00000000	      0.00000000	     44.99992308	    -14.99999999	     44.99992308	     75.00017585	     45.00000026	      0.00000000	      0.00000000
